<?xml version="1.0" encoding="UTF-8" standalone="no"?>
<!-- Created with Inkscape (http://www.inkscape.org/) -->

<svg
   width="1024"
   height="1024"
   viewBox="0 0 1024 1024"
   version="1.1"
   id="svg5"
   xml:space="preserve"
   xmlns:xlink="http://www.w3.org/1999/xlink"
   xmlns="http://www.w3.org/2000/svg"
   xmlns:svg="http://www.w3.org/2000/svg"><defs
     id="defs2"><linearGradient
       id="linearGradient1516"><stop
         style="stop-color:#794020;stop-opacity:1;"
         offset="0"
         id="stop1510" /><stop
         style="stop-color:#5b0b13;stop-opacity:1;"
         offset="0.49533564"
         id="stop1512" /><stop
         style="stop-color:#794020;stop-opacity:1;"
         offset="1"
         id="stop1514" /></linearGradient><linearGradient
       id="linearGradient1216"><stop
         style="stop-color:#f9e37d;stop-opacity:1"
         offset="0"
         id="stop1208" /><stop
         style="stop-color:#e2b359;stop-opacity:1"
         offset="0.3899956"
         id="stop1210" /><stop
         style="stop-color:#a8833d;stop-opacity:1;"
         offset="0.65678871"
         id="stop1212" /><stop
         style="stop-color:#866427;stop-opacity:1;"
         offset="1"
         id="stop1214" /></linearGradient><linearGradient
       id="linearGradient62877"><stop
         style="stop-color:#7a5d1f;stop-opacity:1;"
         offset="0"
         id="stop62873" /><stop
         style="stop-color:#a5803b;stop-opacity:1;"
         offset="0.47"
         id="stop62881" /><stop
         style="stop-color:#7a5d1f;stop-opacity:1;"
         offset="1"
         id="stop62875" /></linearGradient><linearGradient
       id="linearGradient61298"><stop
         style="stop-color:#721119;stop-opacity:1;"
         offset="0"
         id="stop61290" /><stop
         style="stop-color:#901820;stop-opacity:1;"
         offset="0.3899956"
         id="stop61292" /><stop
         style="stop-color:#84151d;stop-opacity:1;"
         offset="0.65678871"
         id="stop61294" /><stop
         style="stop-color:#84151d;stop-opacity:1;"
         offset="1"
         id="stop61296" /></linearGradient><linearGradient
       id="linearGradient32200"><stop
         style="stop-color:#fef59f;stop-opacity:1;"
         offset="0"
         id="stop32196" /><stop
         style="stop-color:#c69c33;stop-opacity:1;"
         offset="0.34375298"
         id="stop32204" /><stop
         style="stop-color:#695125;stop-opacity:1;"
         offset="1"
         id="stop32198" /></linearGradient><linearGradient
       id="linearGradient10516"><stop
         style="stop-color:#f9e37d;stop-opacity:1"
         offset="0"
         id="stop10512" /><stop
         style="stop-color:#e2b359;stop-opacity:1"
         offset="0.3899956"
         id="stop10520" /><stop
         style="stop-color:#aa843e;stop-opacity:1;"
         offset="0.65678871"
         id="stop19360" /><stop
         style="stop-color:#694e1f;stop-opacity:1"
         offset="1"
         id="stop10514" /></linearGradient><linearGradient
       xlink:href="#linearGradient10516"
       id="linearGradient10518"
       x1="309.27655"
       y1="570.96777"
       x2="531.08301"
       y2="570.96777"
       gradientUnits="userSpaceOnUse"
       spreadMethod="reflect" /><linearGradient
       xlink:href="#linearGradient32200"
       id="linearGradient32202"
       x1="766.31525"
       y1="594.03735"
       x2="734.15179"
       y2="495.18228"
       gradientUnits="userSpaceOnUse" /><linearGradient
       xlink:href="#linearGradient61298"
       id="linearGradient60943"
       x1="367.58728"
       y1="609.83496"
       x2="513.36334"
       y2="609.83496"
       gradientUnits="userSpaceOnUse"
       spreadMethod="reflect"
       gradientTransform="matrix(0.93828562,0,0,0.93828562,31.885772,38.448929)" /><linearGradient
       xlink:href="#linearGradient1216"
       id="linearGradient62847"
       gradientUnits="userSpaceOnUse"
       x1="309.27655"
       y1="570.96777"
       x2="531.08301"
       y2="570.96777"
       spreadMethod="reflect" /><linearGradient
       xlink:href="#linearGradient62877"
       id="linearGradient62879"
       x1="303.27853"
       y1="670.23944"
       x2="757.39526"
       y2="670.23944"
       gradientUnits="userSpaceOnUse" /><linearGradient
       xlink:href="#linearGradient1516"
       id="linearGradient69711"
       x1="363.15631"
       y1="615.33606"
       x2="660.84363"
       y2="615.33606"
       gradientUnits="userSpaceOnUse"
       gradientTransform="matrix(0.93828562,0,0,0.93828562,31.885772,38.448929)" /><linearGradient
       xlink:href="#linearGradient32200"
       id="linearGradient5147"
       gradientUnits="userSpaceOnUse"
       x1="766.31525"
       y1="594.03735"
       x2="734.15179"
       y2="495.18228" /><linearGradient
       xlink:href="#linearGradient32200"
       id="linearGradient5149"
       gradientUnits="userSpaceOnUse"
       x1="766.31525"
       y1="594.03735"
       x2="734.15179"
       y2="495.18228" /><linearGradient
       xlink:href="#linearGradient32200"
       id="linearGradient5151"
       gradientUnits="userSpaceOnUse"
       x1="766.31525"
       y1="594.03735"
       x2="734.15179"
       y2="495.18228" /><linearGradient
       xlink:href="#linearGradient32200"
       id="linearGradient5153"
       gradientUnits="userSpaceOnUse"
       x1="766.31525"
       y1="594.03735"
       x2="734.15179"
       y2="495.18228" /><linearGradient
       xlink:href="#linearGradient32200"
       id="linearGradient5155"
       gradientUnits="userSpaceOnUse"
       x1="766.31525"
       y1="594.03735"
       x2="734.15179"
       y2="495.18228" /><linearGradient
       xlink:href="#linearGradient32200"
       id="linearGradient5157"
       gradientUnits="userSpaceOnUse"
       x1="766.31525"
       y1="594.03735"
       x2="734.15179"
       y2="495.18228" /><linearGradient
       xlink:href="#linearGradient32200"
       id="linearGradient5159"
       gradientUnits="userSpaceOnUse"
       x1="766.31525"
       y1="594.03735"
       x2="734.15179"
       y2="495.18228" /><linearGradient
       xlink:href="#linearGradient32200"
       id="linearGradient5161"
       gradientUnits="userSpaceOnUse"
       x1="766.31525"
       y1="594.03735"
       x2="734.15179"
       y2="495.18228" /><linearGradient
       xlink:href="#linearGradient32200"
       id="linearGradient5163"
       gradientUnits="userSpaceOnUse"
       x1="766.31525"
       y1="594.03735"
       x2="734.15179"
       y2="495.18228" /><linearGradient
       xlink:href="#linearGradient32200"
       id="linearGradient5165"
       gradientUnits="userSpaceOnUse"
       x1="766.31525"
       y1="594.03735"
       x2="734.15179"
       y2="495.18228" /><linearGradient
       xlink:href="#linearGradient32200"
       id="linearGradient5167"
       gradientUnits="userSpaceOnUse"
       x1="766.31525"
       y1="594.03735"
       x2="734.15179"
       y2="495.18228" /><linearGradient
       xlink:href="#linearGradient32200"
       id="linearGradient5169"
       gradientUnits="userSpaceOnUse"
       x1="766.31525"
       y1="594.03735"
       x2="734.15179"
       y2="495.18228" /><linearGradient
       xlink:href="#linearGradient32200"
       id="linearGradient5171"
       gradientUnits="userSpaceOnUse"
       x1="766.31525"
       y1="594.03735"
       x2="734.15179"
       y2="495.18228" /><linearGradient
       xlink:href="#linearGradient32200"
       id="linearGradient5173"
       gradientUnits="userSpaceOnUse"
       x1="766.31525"
       y1="594.03735"
       x2="734.15179"
       y2="495.18228" /><linearGradient
       xlink:href="#linearGradient32200"
       id="linearGradient5175"
       gradientUnits="userSpaceOnUse"
       x1="766.31525"
       y1="594.03735"
       x2="734.15179"
       y2="495.18228" /><linearGradient
       xlink:href="#linearGradient32200"
       id="linearGradient5177"
       gradientUnits="userSpaceOnUse"
       x1="766.31525"
       y1="594.03735"
       x2="734.15179"
       y2="495.18228" /><linearGradient
       xlink:href="#linearGradient32200"
       id="linearGradient5179"
       gradientUnits="userSpaceOnUse"
       x1="766.31525"
       y1="594.03735"
       x2="734.15179"
       y2="495.18228" /><linearGradient
       xlink:href="#linearGradient32200"
       id="linearGradient5181"
       gradientUnits="userSpaceOnUse"
       x1="766.31525"
       y1="594.03735"
       x2="734.15179"
       y2="495.18228" /><linearGradient
       xlink:href="#linearGradient32200"
       id="linearGradient5183"
       gradientUnits="userSpaceOnUse"
       x1="766.31525"
       y1="594.03735"
       x2="734.15179"
       y2="495.18228" /><linearGradient
       xlink:href="#linearGradient32200"
       id="linearGradient5185"
       gradientUnits="userSpaceOnUse"
       x1="766.31525"
       y1="594.03735"
       x2="734.15179"
       y2="495.18228" /><linearGradient
       xlink:href="#linearGradient32200"
       id="linearGradient5187"
       gradientUnits="userSpaceOnUse"
       x1="766.31525"
       y1="594.03735"
       x2="734.15179"
       y2="495.18228" /><linearGradient
       xlink:href="#linearGradient32200"
       id="linearGradient5189"
       gradientUnits="userSpaceOnUse"
       x1="766.31525"
       y1="594.03735"
       x2="734.15179"
       y2="495.18228" /><linearGradient
       xlink:href="#linearGradient32200"
       id="linearGradient7107"
       gradientUnits="userSpaceOnUse"
       x1="766.31525"
       y1="594.03735"
       x2="734.15179"
       y2="495.18228" /><linearGradient
       xlink:href="#linearGradient32200"
       id="linearGradient7109"
       gradientUnits="userSpaceOnUse"
       x1="766.31525"
       y1="594.03735"
       x2="734.15179"
       y2="495.18228" /><linearGradient
       xlink:href="#linearGradient32200"
       id="linearGradient7111"
       gradientUnits="userSpaceOnUse"
       x1="766.31525"
       y1="594.03735"
       x2="734.15179"
       y2="495.18228" /><linearGradient
       xlink:href="#linearGradient32200"
       id="linearGradient7113"
       gradientUnits="userSpaceOnUse"
       x1="766.31525"
       y1="594.03735"
       x2="734.15179"
       y2="495.18228" /><linearGradient
       xlink:href="#linearGradient32200"
       id="linearGradient7115"
       gradientUnits="userSpaceOnUse"
       x1="766.31525"
       y1="594.03735"
       x2="734.15179"
       y2="495.18228" /><linearGradient
       xlink:href="#linearGradient32200"
       id="linearGradient7117"
       gradientUnits="userSpaceOnUse"
       x1="766.31525"
       y1="594.03735"
       x2="734.15179"
       y2="495.18228" /><linearGradient
       xlink:href="#linearGradient32200"
       id="linearGradient7119"
       gradientUnits="userSpaceOnUse"
       x1="766.31525"
       y1="594.03735"
       x2="734.15179"
       y2="495.18228" /><linearGradient
       xlink:href="#linearGradient32200"
       id="linearGradient7121"
       gradientUnits="userSpaceOnUse"
       x1="766.31525"
       y1="594.03735"
       x2="734.15179"
       y2="495.18228" /><linearGradient
       xlink:href="#linearGradient32200"
       id="linearGradient7123"
       gradientUnits="userSpaceOnUse"
       x1="766.31525"
       y1="594.03735"
       x2="734.15179"
       y2="495.18228" /><linearGradient
       xlink:href="#linearGradient32200"
       id="linearGradient7125"
       gradientUnits="userSpaceOnUse"
       x1="766.31525"
       y1="594.03735"
       x2="734.15179"
       y2="495.18228" /><linearGradient
       xlink:href="#linearGradient32200"
       id="linearGradient7127"
       gradientUnits="userSpaceOnUse"
       x1="766.31525"
       y1="594.03735"
       x2="734.15179"
       y2="495.18228" /><linearGradient
       xlink:href="#linearGradient32200"
       id="linearGradient7129"
       gradientUnits="userSpaceOnUse"
       x1="766.31525"
       y1="594.03735"
       x2="734.15179"
       y2="495.18228" /><linearGradient
       xlink:href="#linearGradient32200"
       id="linearGradient7131"
       gradientUnits="userSpaceOnUse"
       x1="766.31525"
       y1="594.03735"
       x2="734.15179"
       y2="495.18228" /><linearGradient
       xlink:href="#linearGradient32200"
       id="linearGradient7133"
       gradientUnits="userSpaceOnUse"
       x1="766.31525"
       y1="594.03735"
       x2="734.15179"
       y2="495.18228" /><linearGradient
       xlink:href="#linearGradient32200"
       id="linearGradient7135"
       gradientUnits="userSpaceOnUse"
       x1="766.31525"
       y1="594.03735"
       x2="734.15179"
       y2="495.18228" /><linearGradient
       xlink:href="#linearGradient32200"
       id="linearGradient7137"
       gradientUnits="userSpaceOnUse"
       x1="766.31525"
       y1="594.03735"
       x2="734.15179"
       y2="495.18228" /><linearGradient
       xlink:href="#linearGradient32200"
       id="linearGradient7139"
       gradientUnits="userSpaceOnUse"
       x1="766.31525"
       y1="594.03735"
       x2="734.15179"
       y2="495.18228" /><linearGradient
       xlink:href="#linearGradient32200"
       id="linearGradient7141"
       gradientUnits="userSpaceOnUse"
       x1="766.31525"
       y1="594.03735"
       x2="734.15179"
       y2="495.18228" /><linearGradient
       xlink:href="#linearGradient32200"
       id="linearGradient7143"
       gradientUnits="userSpaceOnUse"
       x1="766.31525"
       y1="594.03735"
       x2="734.15179"
       y2="495.18228" /><linearGradient
       xlink:href="#linearGradient32200"
       id="linearGradient7145"
       gradientUnits="userSpaceOnUse"
       x1="766.31525"
       y1="594.03735"
       x2="734.15179"
       y2="495.18228" /><linearGradient
       xlink:href="#linearGradient32200"
       id="linearGradient7147"
       gradientUnits="userSpaceOnUse"
       x1="766.31525"
       y1="594.03735"
       x2="734.15179"
       y2="495.18228" /></defs><g
     id="layer1"><path
       class="UnoptimicedTransforms"
       id="path9001-6"
       d="m 555.20815,552.04882 c 0,0 161.6476,0.71616 243.6817,0.71616 22.4415,0 97.8898,-11.77002 97.8898,-11.77002 0,0 -19.0335,50.45967 -100.7072,61.23102 -121.8428,16.06895 -222.99,-7.7944 -232.9433,-10.46137 -6.6672,-1.78646 -31.405,-8.68662 -31.405,-25.05122 0,-16.36461 23.484,-14.66459 23.484,-14.66459 z"
       style="font-variation-settings:normal;opacity:1;vector-effect:none;fill:url(#linearGradient7107);fill-opacity:1;stroke:#a37b33;stroke-width:3;stroke-linecap:butt;stroke-linejoin:miter;stroke-miterlimit:4;stroke-dasharray:none;stroke-dashoffset:0;stroke-opacity:1;-inkscape-stroke:none;stop-color:#000000;stop-opacity:1"
       transform="matrix(-0.48408455,-0.87502123,-0.87502123,0.48408455,1021.6934,706.27884)" /><path
       class="UnoptimicedTransforms"
       id="path9001-6-1"
       d="m 555.20815,552.04882 c 0,0 161.6476,0.71616 243.6817,0.71616 22.4415,0 97.8898,-11.77002 97.8898,-11.77002 0,0 -19.0335,50.45967 -100.7072,61.23102 -121.8428,16.06895 -222.99,-7.7944 -232.9433,-10.46137 -6.6672,-1.78646 -31.405,-8.68662 -31.405,-25.05122 0,-16.36461 23.484,-14.66459 23.484,-14.66459 z"
       style="font-variation-settings:normal;opacity:1;vector-effect:none;fill:url(#linearGradient7109);fill-opacity:1;stroke:#a37b33;stroke-width:3;stroke-linecap:butt;stroke-linejoin:miter;stroke-miterlimit:4;stroke-dasharray:none;stroke-dashoffset:0;stroke-opacity:1;-inkscape-stroke:none;stop-color:#000000;stop-opacity:1"
       transform="matrix(-0.63528758,-0.77227566,-0.77227566,0.63528758,1047.8953,613.83808)" /><path
       class="UnoptimicedTransforms"
       id="path9001-6-1-0-6-0"
       d="m 555.20815,552.04882 c 0,0 161.6476,0.71616 243.6817,0.71616 22.4415,0 97.8898,-11.77002 97.8898,-11.77002 0,0 -19.0335,50.45967 -100.7072,61.23102 -121.8428,16.06895 -222.99,-7.7944 -232.9433,-10.46137 -6.6672,-1.78646 -31.405,-8.68662 -31.405,-25.05122 0,-16.36461 23.484,-14.66459 23.484,-14.66459 z"
       style="font-variation-settings:normal;opacity:1;vector-effect:none;fill:url(#linearGradient5147);fill-opacity:1;stroke:#a37b33;stroke-width:6.26752;stroke-linecap:butt;stroke-linejoin:miter;stroke-miterlimit:4;stroke-dasharray:none;stroke-dashoffset:0;stroke-opacity:1;-inkscape-stroke:none;stop-color:#000000;stop-opacity:1"
       transform="matrix(-0.38137676,-0.23718945,-0.23718945,0.38137676,688.91199,496.66049)" /><path
       class="UnoptimicedTransforms"
       id="path9001-6-1-0-6-2"
       d="m 555.20815,552.04882 c 0,0 161.6476,0.71616 243.6817,0.71616 22.4415,0 97.8898,-11.77002 97.8898,-11.77002 0,0 -19.0335,50.45967 -100.7072,61.23102 -121.8428,16.06895 -222.99,-7.7944 -232.9433,-10.46137 -6.6672,-1.78646 -31.405,-8.68662 -31.405,-25.05122 0,-16.36461 23.484,-14.66459 23.484,-14.66459 z"
       style="font-variation-settings:normal;opacity:1;vector-effect:none;fill:url(#linearGradient7111);fill-opacity:1;stroke:#a37b33;stroke-width:3;stroke-linecap:butt;stroke-linejoin:miter;stroke-miterlimit:4;stroke-dasharray:none;stroke-dashoffset:0;stroke-opacity:1;-inkscape-stroke:none;stop-color:#000000;stop-opacity:1"
       transform="matrix(-0.96173176,-0.27399274,-0.27399274,0.96173176,1030.4683,274.86866)" /><path
       id="rect8152-5-5-9"
       style="font-variation-settings:normal;opacity:1;vector-effect:none;fill:url(#linearGradient7113);fill-opacity:1;stroke:#a37b33;stroke-width:3;stroke-linecap:butt;stroke-linejoin:miter;stroke-miterlimit:4;stroke-dasharray:none;stroke-dashoffset:0;stroke-opacity:1;-inkscape-stroke:none;stop-color:#000000;stop-opacity:1"
       d="m 555.20815,552.04882 c 0,0 161.6476,0.71616 243.6817,0.71616 22.4415,0 97.8898,-11.77002 97.8898,-11.77002 0,0 -19.0335,50.45967 -100.7072,61.23102 -121.8428,16.06895 -222.99,-7.7944 -232.9433,-10.46137 -6.6672,-1.78646 -31.405,-8.68662 -31.405,-25.05122 0,-16.36461 23.484,-14.66459 23.484,-14.66459 z"
       class="UnoptimicedTransforms"
       transform="rotate(-50.558683,637.95096,332.21814)" /><path
       id="rect8152-5-5-9-7-3-61"
       style="font-variation-settings:normal;opacity:1;vector-effect:none;fill:url(#linearGradient5149);fill-opacity:1;stroke:#a37b33;stroke-width:6.26752;stroke-linecap:butt;stroke-linejoin:miter;stroke-miterlimit:4;stroke-dasharray:none;stroke-dashoffset:0;stroke-opacity:1;-inkscape-stroke:none;stop-color:#000000;stop-opacity:1"
       d="m 555.20815,552.04882 c 0,0 161.6476,0.71616 243.6817,0.71616 22.4415,0 97.8898,-11.77002 97.8898,-11.77002 0,0 -19.0335,50.45967 -100.7072,61.23102 -121.8428,16.06895 -222.99,-7.7944 -232.9433,-10.46137 -6.6672,-1.78646 -31.405,-8.68662 -31.405,-25.05122 0,-16.36461 23.484,-14.66459 23.484,-14.66459 z"
       class="UnoptimicedTransforms"
       transform="matrix(0.38137676,-0.23718945,0.23718945,0.38137676,335.08801,496.66049)" /><path
       id="rect8152-5-5-9-7-3-6"
       style="font-variation-settings:normal;opacity:1;vector-effect:none;fill:url(#linearGradient7115);fill-opacity:1;stroke:#a37b33;stroke-width:3;stroke-linecap:butt;stroke-linejoin:miter;stroke-miterlimit:4;stroke-dasharray:none;stroke-dashoffset:0;stroke-opacity:1;-inkscape-stroke:none;stop-color:#000000;stop-opacity:1"
       d="m 555.20815,552.04882 c 0,0 161.6476,0.71616 243.6817,0.71616 22.4415,0 97.8898,-11.77002 97.8898,-11.77002 0,0 -19.0335,50.45967 -100.7072,61.23102 -121.8428,16.06895 -222.99,-7.7944 -232.9433,-10.46137 -6.6672,-1.78646 -31.405,-8.68662 -31.405,-25.05122 0,-16.36461 23.484,-14.66459 23.484,-14.66459 z"
       class="UnoptimicedTransforms"
       transform="rotate(-15.901997,980.76746,160.59001)" /><path
       id="rect8152-5-5-9-7-3-6-1"
       style="font-variation-settings:normal;opacity:1;vector-effect:none;fill:url(#linearGradient7117);fill-opacity:1;stroke:#a37b33;stroke-width:3.5366;stroke-linecap:butt;stroke-linejoin:miter;stroke-miterlimit:4;stroke-dasharray:none;stroke-dashoffset:0;stroke-opacity:1;-inkscape-stroke:none;stop-color:#000000;stop-opacity:1"
       d="m 555.20815,552.04882 c 0,0 161.6476,0.71616 243.6817,0.71616 22.4415,0 97.8898,-11.77002 97.8898,-11.77002 0,0 -19.0335,50.45967 -100.7072,61.23102 -121.8428,16.06895 -222.99,-7.7944 -232.9433,-10.46137 -6.6672,-1.78646 -31.405,-8.68662 -31.405,-25.05122 0,-16.36461 23.484,-14.66459 23.484,-14.66459 z"
       class="UnoptimicedTransforms"
       transform="matrix(0.8441769,-0.08325769,0.08325769,0.8441769,172.10674,250.25913)" /><path
       id="rect8152-5-5-9-7-3"
       style="font-variation-settings:normal;opacity:1;vector-effect:none;fill:url(#linearGradient7119);fill-opacity:1;stroke:#a37b33;stroke-width:3;stroke-linecap:butt;stroke-linejoin:miter;stroke-miterlimit:4;stroke-dasharray:none;stroke-dashoffset:0;stroke-opacity:1;-inkscape-stroke:none;stop-color:#000000;stop-opacity:1"
       d="m 555.20815,552.04882 c 0,0 161.6476,0.71616 243.6817,0.71616 22.4415,0 97.8898,-11.77002 97.8898,-11.77002 0,0 -19.0335,50.45967 -100.7072,61.23102 -121.8428,16.06895 -222.99,-7.7944 -232.9433,-10.46137 -6.6672,-1.78646 -31.405,-8.68662 -31.405,-25.05122 0,-16.36461 23.484,-14.66459 23.484,-14.66459 z"
       class="UnoptimicedTransforms"
       transform="rotate(-31.878699,791.24057,297.41299)" /><path
       id="rect8152-5"
       style="fill:url(#linearGradient7121);fill-opacity:1;stroke:#a37b33;stroke-width:3;stroke-dasharray:none;stroke-opacity:1"
       d="m 555.20815,552.04882 c 0,0 161.6476,0.71616 243.6817,0.71616 22.4415,0 97.8898,-11.77002 97.8898,-11.77002 0,0 -19.0335,50.45967 -100.7072,61.23102 -121.8428,16.06895 -222.99,-7.7944 -232.9433,-10.46137 -6.6672,-1.78646 -31.405,-8.68662 -31.405,-25.05122 0,-16.36461 23.484,-14.66459 23.484,-14.66459 z"
       class="UnoptimicedTransforms"
       transform="rotate(-71.977213,572.49412,379.59294)" /><path
       id="rect8152-5-5-8"
       style="font-variation-settings:normal;opacity:1;vector-effect:none;fill:url(#linearGradient5153);fill-opacity:1;stroke:#a37b33;stroke-width:6.26752;stroke-linecap:butt;stroke-linejoin:miter;stroke-miterlimit:4;stroke-dasharray:none;stroke-dashoffset:0;stroke-opacity:1;-inkscape-stroke:none;stop-color:#000000;stop-opacity:1"
       d="m 555.20815,552.04882 c 0,0 161.6476,0.71616 243.6817,0.71616 22.4415,0 97.8898,-11.77002 97.8898,-11.77002 0,0 -19.0335,50.45967 -100.7072,61.23102 -121.8428,16.06895 -222.99,-7.7944 -232.9433,-10.46137 -6.6672,-1.78646 -31.405,-8.68662 -31.405,-25.05122 0,-16.36461 23.484,-14.66459 23.484,-14.66459 z"
       class="UnoptimicedTransforms"
       transform="matrix(0.21741114,-0.39298787,0.39298787,0.21741114,353.06749,606.04203)" /><path
       id="rect8152-5-5"
       style="font-variation-settings:normal;opacity:1;vector-effect:none;fill:url(#linearGradient7123);fill-opacity:1;stroke:#a37b33;stroke-width:3;stroke-linecap:butt;stroke-linejoin:miter;stroke-miterlimit:4;stroke-dasharray:none;stroke-dashoffset:0;stroke-opacity:1;-inkscape-stroke:none;stop-color:#000000;stop-opacity:1"
       d="m 555.20815,552.04882 c 0,0 161.6476,0.71616 243.6817,0.71616 22.4415,0 97.8898,-11.77002 97.8898,-11.77002 0,0 -19.0335,50.45967 -100.7072,61.23102 -121.8428,16.06895 -222.99,-7.7944 -232.9433,-10.46137 -6.6672,-1.78646 -31.405,-8.68662 -31.405,-25.05122 0,-16.36461 23.484,-14.66459 23.484,-14.66459 z"
       class="UnoptimicedTransforms"
       transform="rotate(-61.047488,600.09736,351.18334)" /><path
       id="rect8152-5-5-9-7-0"
       style="font-variation-settings:normal;opacity:1;vector-effect:none;fill:url(#linearGradient5155);fill-opacity:1;stroke:#a37b33;stroke-width:6.26752;stroke-linecap:butt;stroke-linejoin:miter;stroke-miterlimit:4;stroke-dasharray:none;stroke-dashoffset:0;stroke-opacity:1;-inkscape-stroke:none;stop-color:#000000;stop-opacity:1"
       d="m 555.20815,552.04882 c 0,0 161.6476,0.71616 243.6817,0.71616 22.4415,0 97.8898,-11.77002 97.8898,-11.77002 0,0 -19.0335,50.45967 -100.7072,61.23102 -121.8428,16.06895 -222.99,-7.7944 -232.9433,-10.46137 -6.6672,-1.78646 -31.405,-8.68662 -31.405,-25.05122 0,-16.36461 23.484,-14.66459 23.484,-14.66459 z"
       class="UnoptimicedTransforms"
       transform="matrix(0.33564526,-0.29841134,0.29841134,0.33564526,337.90844,535.5823)" /><path
       id="rect8152-5-5-9-5"
       style="font-variation-settings:normal;opacity:1;vector-effect:none;fill:url(#linearGradient5157);fill-opacity:1;stroke:#a37b33;stroke-width:6.26752;stroke-linecap:butt;stroke-linejoin:miter;stroke-miterlimit:4;stroke-dasharray:none;stroke-dashoffset:0;stroke-opacity:1;-inkscape-stroke:none;stop-color:#000000;stop-opacity:1"
       d="m 555.20815,552.04882 c 0,0 161.6476,0.71616 243.6817,0.71616 22.4415,0 97.8898,-11.77002 97.8898,-11.77002 0,0 -19.0335,50.45967 -100.7072,61.23102 -121.8428,16.06895 -222.99,-7.7944 -232.9433,-10.46137 -6.6672,-1.78646 -31.405,-8.68662 -31.405,-25.05122 0,-16.36461 23.484,-14.66459 23.484,-14.66459 z"
       class="UnoptimicedTransforms"
       transform="matrix(0.28531915,-0.34684297,0.34684297,0.28531915,341.29971,564.52518)" /><path
       id="rect8152-5-5-9-7"
       style="font-variation-settings:normal;opacity:1;vector-effect:none;fill:url(#linearGradient7125);fill-opacity:1;stroke:#a37b33;stroke-width:3;stroke-linecap:butt;stroke-linejoin:miter;stroke-miterlimit:4;stroke-dasharray:none;stroke-dashoffset:0;stroke-opacity:1;-inkscape-stroke:none;stop-color:#000000;stop-opacity:1"
       d="m 555.20815,552.04882 c 0,0 161.6476,0.71616 243.6817,0.71616 22.4415,0 97.8898,-11.77002 97.8898,-11.77002 0,0 -19.0335,50.45967 -100.7072,61.23102 -121.8428,16.06895 -222.99,-7.7944 -232.9433,-10.46137 -6.6672,-1.78646 -31.405,-8.68662 -31.405,-25.05122 0,-16.36461 23.484,-14.66459 23.484,-14.66459 z"
       class="UnoptimicedTransforms"
       transform="rotate(-41.639261,706.67643,316.04594)" /><path
       id="rect8152-5-5-9-7-3-6-6"
       style="font-variation-settings:normal;opacity:1;vector-effect:none;fill:url(#linearGradient5159);fill-opacity:1;stroke:#a37b33;stroke-width:6.26752;stroke-linecap:butt;stroke-linejoin:miter;stroke-miterlimit:4;stroke-dasharray:none;stroke-dashoffset:0;stroke-opacity:1;-inkscape-stroke:none;stop-color:#000000;stop-opacity:1"
       d="m 555.20815,552.04882 c 0,0 161.6476,0.71616 243.6817,0.71616 22.4415,0 97.8898,-11.77002 97.8898,-11.77002 0,0 -19.0335,50.45967 -100.7072,61.23102 -121.8428,16.06895 -222.99,-7.7944 -232.9433,-10.46137 -6.6672,-1.78646 -31.405,-8.68662 -31.405,-25.05122 0,-16.36461 23.484,-14.66459 23.484,-14.66459 z"
       class="UnoptimicedTransforms"
       transform="matrix(0.43193114,-0.1230551,0.1230551,0.43193114,349.12653,412.28789)" /><path
       id="rect8152-5-5-9-7-3-6-1-2"
       style="font-variation-settings:normal;opacity:1;vector-effect:none;fill:url(#linearGradient5161);fill-opacity:1;stroke:#a37b33;stroke-width:7.38857;stroke-linecap:butt;stroke-linejoin:miter;stroke-miterlimit:4;stroke-dasharray:none;stroke-dashoffset:0;stroke-opacity:1;-inkscape-stroke:none;stop-color:#000000;stop-opacity:1"
       d="m 555.20815,552.04882 c 0,0 161.6476,0.71616 243.6817,0.71616 22.4415,0 97.8898,-11.77002 97.8898,-11.77002 0,0 -19.0335,50.45967 -100.7072,61.23102 -121.8428,16.06895 -222.99,-7.7944 -232.9433,-10.46137 -6.6672,-1.78646 -31.405,-8.68662 -31.405,-25.05122 0,-16.36461 23.484,-14.66459 23.484,-14.66459 z"
       class="UnoptimicedTransforms"
       transform="matrix(0.37913513,-0.03739253,0.03739253,0.37913513,429.32779,401.23531)" /><path
       id="rect8152-5-5-9-7-3-6-1-9-0"
       style="font-variation-settings:normal;opacity:1;vector-effect:none;fill:url(#linearGradient5163);fill-opacity:1;stroke:#a37b33;stroke-width:9.909;stroke-linecap:butt;stroke-linejoin:miter;stroke-miterlimit:4;stroke-dasharray:none;stroke-dashoffset:0;stroke-opacity:1;-inkscape-stroke:none;stop-color:#000000;stop-opacity:1"
       d="m 555.20815,552.04882 c 0,0 161.6476,0.71616 243.6817,0.71616 22.4415,0 97.8898,-11.77002 97.8898,-11.77002 0,0 -19.0335,50.45967 -100.7072,61.23102 -121.8428,16.06895 -222.99,-7.7944 -232.9433,-10.46137 -6.6672,-1.78646 -31.405,-8.68662 -31.405,-25.05122 0,-16.36461 23.484,-14.66459 23.484,-14.66459 z"
       class="UnoptimicedTransforms"
       transform="matrix(0.27776236,0.05953374,-0.05953374,0.27776236,558.16979,400.88856)" /><path
       id="rect8152-5-5-9-7-3-6-1-9-2-6"
       style="font-variation-settings:normal;opacity:1;vector-effect:none;fill:url(#linearGradient5165);fill-opacity:1;stroke:#a37b33;stroke-width:9.909;stroke-linecap:butt;stroke-linejoin:miter;stroke-miterlimit:4;stroke-dasharray:none;stroke-dashoffset:0;stroke-opacity:1;-inkscape-stroke:none;stop-color:#000000;stop-opacity:1"
       d="m 555.20815,552.04882 c 0,0 161.6476,0.71616 243.6817,0.71616 22.4415,0 97.8898,-11.77002 97.8898,-11.77002 0,0 -19.0335,50.45967 -100.7072,61.23102 -121.8428,16.06895 -222.99,-7.7944 -232.9433,-10.46137 -6.6672,-1.78646 -31.405,-8.68662 -31.405,-25.05122 0,-16.36461 23.484,-14.66459 23.484,-14.66459 z"
       class="UnoptimicedTransforms"
       transform="matrix(0.24748346,0.13945657,-0.13945657,0.24748346,612.02305,372.75619)" /><path
       id="rect8152-5-5-9-7-3-6-1-9"
       style="font-variation-settings:normal;opacity:1;vector-effect:none;fill:url(#linearGradient7127);fill-opacity:1;stroke:#a37b33;stroke-width:4.74302;stroke-linecap:butt;stroke-linejoin:miter;stroke-miterlimit:4;stroke-dasharray:none;stroke-dashoffset:0;stroke-opacity:1;-inkscape-stroke:none;stop-color:#000000;stop-opacity:1"
       d="m 555.20815,552.04882 c 0,0 161.6476,0.71616 243.6817,0.71616 22.4415,0 97.8898,-11.77002 97.8898,-11.77002 0,0 -19.0335,50.45967 -100.7072,61.23102 -121.8428,16.06895 -222.99,-7.7944 -232.9433,-10.46137 -6.6672,-1.78646 -31.405,-8.68662 -31.405,-25.05122 0,-16.36461 23.484,-14.66459 23.484,-14.66459 z"
       class="UnoptimicedTransforms"
       transform="matrix(0.61846175,0.13255699,-0.13255699,0.61846175,458.98455,249.48703)" /><path
       id="rect8152-5-5-9-7-3-6-1-9-2-5-5"
       style="font-variation-settings:normal;opacity:1;vector-effect:none;fill:url(#linearGradient5167);fill-opacity:1;stroke:#a37b33;stroke-width:9.909;stroke-linecap:butt;stroke-linejoin:miter;stroke-miterlimit:4;stroke-dasharray:none;stroke-dashoffset:0;stroke-opacity:1;-inkscape-stroke:none;stop-color:#000000;stop-opacity:1"
       d="m 555.20815,552.04882 c 0,0 161.6476,0.71616 243.6817,0.71616 22.4415,0 97.8898,-11.77002 97.8898,-11.77002 0,0 -19.0335,50.45967 -100.7072,61.23102 -121.8428,16.06895 -222.99,-7.7944 -232.9433,-10.46137 -6.6672,-1.78646 -31.405,-8.68662 -31.405,-25.05122 0,-16.36461 23.484,-14.66459 23.484,-14.66459 z"
       class="UnoptimicedTransforms"
       transform="matrix(0.20154958,0.20018482,-0.20018482,0.20154958,667.32296,361.54481)" /><path
       id="rect8152-5-5-9-7-3-6-1-9-2"
       style="font-variation-settings:normal;opacity:1;vector-effect:none;fill:url(#linearGradient7129);fill-opacity:1;stroke:#a37b33;stroke-width:4.74302;stroke-linecap:butt;stroke-linejoin:miter;stroke-miterlimit:4;stroke-dasharray:none;stroke-dashoffset:0;stroke-opacity:1;-inkscape-stroke:none;stop-color:#000000;stop-opacity:1"
       d="m 555.20815,552.04882 c 0,0 161.6476,0.71616 243.6817,0.71616 22.4415,0 97.8898,-11.77002 97.8898,-11.77002 0,0 -19.0335,50.45967 -100.7072,61.23102 -121.8428,16.06895 -222.99,-7.7944 -232.9433,-10.46137 -6.6672,-1.78646 -31.405,-8.68662 -31.405,-25.05122 0,-16.36461 23.484,-14.66459 23.484,-14.66459 z"
       class="UnoptimicedTransforms"
       transform="matrix(0.55104318,0.31051201,-0.31051201,0.55104318,578.89338,186.84792)" /><path
       id="rect8152-5-5-9-7-3-6-1-9-2-5-2-4"
       style="font-variation-settings:normal;opacity:1;vector-effect:none;fill:url(#linearGradient5169);fill-opacity:1;stroke:#a37b33;stroke-width:13.934;stroke-linecap:butt;stroke-linejoin:miter;stroke-miterlimit:4;stroke-dasharray:none;stroke-dashoffset:0;stroke-opacity:1;-inkscape-stroke:none;stop-color:#000000;stop-opacity:1"
       d="m 555.20815,552.04882 c 0,0 161.6476,0.71616 243.6817,0.71616 22.4415,0 97.8898,-11.77002 97.8898,-11.77002 0,0 -19.0335,50.45967 -100.7072,61.23102 -121.8428,16.06895 -222.99,-7.7944 -232.9433,-10.46137 -6.6672,-1.78646 -31.405,-8.68662 -31.405,-25.05122 0,-16.36461 23.484,-14.66459 23.484,-14.66459 z"
       class="UnoptimicedTransforms"
       transform="matrix(0.1083246,0.17051389,-0.17051389,0.1083246,712.43967,449.6108)" /><path
       id="rect8152-5-5-9-7-3-6-1-9-2-5"
       style="font-variation-settings:normal;opacity:1;vector-effect:none;fill:url(#linearGradient7131);fill-opacity:1;stroke:#a37b33;stroke-width:4.74302;stroke-linecap:butt;stroke-linejoin:miter;stroke-miterlimit:4;stroke-dasharray:none;stroke-dashoffset:0;stroke-opacity:1;-inkscape-stroke:none;stop-color:#000000;stop-opacity:1"
       d="m 555.20815,552.04882 c 0,0 161.6476,0.71616 243.6817,0.71616 22.4415,0 97.8898,-11.77002 97.8898,-11.77002 0,0 -19.0335,50.45967 -100.7072,61.23102 -121.8428,16.06895 -222.99,-7.7944 -232.9433,-10.46137 -6.6672,-1.78646 -31.405,-8.68662 -31.405,-25.05122 0,-16.36461 23.484,-14.66459 23.484,-14.66459 z"
       class="UnoptimicedTransforms"
       transform="matrix(0.44876744,0.4457287,-0.4457287,0.44876744,702.02338,165.8848)" /><path
       class="UnoptimicedTransforms"
       id="path9001-6-1-0-6-2-8-2-3"
       d="m 555.20815,552.04882 c 0,0 161.6476,0.71616 243.6817,0.71616 22.4415,0 97.8898,-11.77002 97.8898,-11.77002 0,0 -19.0335,50.45967 -100.7072,61.23102 -121.8428,16.06895 -222.99,-7.7944 -232.9433,-10.46137 -6.6672,-1.78646 -31.405,-8.68662 -31.405,-25.05122 0,-16.36461 23.484,-14.66459 23.484,-14.66459 z"
       style="font-variation-settings:normal;opacity:1;vector-effect:none;fill:url(#linearGradient7133);fill-opacity:1;stroke:#a37b33;stroke-width:4.74302;stroke-linecap:butt;stroke-linejoin:miter;stroke-miterlimit:4;stroke-dasharray:none;stroke-dashoffset:0;stroke-opacity:1;-inkscape-stroke:none;stop-color:#000000;stop-opacity:1"
       transform="matrix(-0.55104318,0.31051201,0.31051201,0.55104318,445.10662,186.84792)" /><path
       class="UnoptimicedTransforms"
       id="path9001-9"
       d="m 555.20815,552.04882 c 0,0 161.6476,0.71616 243.6817,0.71616 22.4415,0 97.8898,-11.77002 97.8898,-11.77002 0,0 -19.0335,50.45967 -100.7072,61.23102 -121.8428,16.06895 -222.99,-7.7944 -232.9433,-10.46137 -6.6672,-1.78646 -31.405,-8.68662 -31.405,-25.05122 0,-16.36461 23.484,-14.66459 23.484,-14.66459 z"
       style="font-variation-settings:normal;opacity:1;vector-effect:none;fill:url(#linearGradient5171);fill-opacity:1;stroke:#a37b33;stroke-width:6.26752;stroke-linecap:butt;stroke-linejoin:miter;stroke-miterlimit:4;stroke-dasharray:none;stroke-dashoffset:0;stroke-opacity:1;-inkscape-stroke:none;stop-color:#000000;stop-opacity:1"
       transform="matrix(-0.13895499,-0.42708147,-0.42708147,0.13895499,656.51902,651.07676)" /><path
       class="UnoptimicedTransforms"
       id="path9001"
       d="m 555.20815,552.04882 c 0,0 161.6476,0.71616 243.6817,0.71616 22.4415,0 97.8898,-11.77002 97.8898,-11.77002 0,0 -19.0335,50.45967 -100.7072,61.23102 -121.8428,16.06895 -222.99,-7.7944 -232.9433,-10.46137 -6.6672,-1.78646 -31.405,-8.68662 -31.405,-25.05122 0,-16.36461 23.484,-14.66459 23.484,-14.66459 z"
       style="font-variation-settings:normal;opacity:1;vector-effect:none;fill:url(#linearGradient7135);fill-opacity:1;stroke:#a37b33;stroke-width:3;stroke-linecap:butt;stroke-linejoin:miter;stroke-miterlimit:4;stroke-dasharray:none;stroke-dashoffset:0;stroke-opacity:1;-inkscape-stroke:none;stop-color:#000000;stop-opacity:1"
       transform="matrix(-0.30939521,-0.95093354,-0.95093354,0.30939521,989.60048,806.55256)" /><path
       class="UnoptimicedTransforms"
       id="path9001-6-4"
       d="m 555.20815,552.04882 c 0,0 161.6476,0.71616 243.6817,0.71616 22.4415,0 97.8898,-11.77002 97.8898,-11.77002 0,0 -19.0335,50.45967 -100.7072,61.23102 -121.8428,16.06895 -222.99,-7.7944 -232.9433,-10.46137 -6.6672,-1.78646 -31.405,-8.68662 -31.405,-25.05122 0,-16.36461 23.484,-14.66459 23.484,-14.66459 z"
       style="font-variation-settings:normal;opacity:1;vector-effect:none;fill:url(#linearGradient5173);fill-opacity:1;stroke:#a37b33;stroke-width:6.26752;stroke-linecap:butt;stroke-linejoin:miter;stroke-miterlimit:4;stroke-dasharray:none;stroke-dashoffset:0;stroke-opacity:1;-inkscape-stroke:none;stop-color:#000000;stop-opacity:1"
       transform="matrix(-0.21741114,-0.39298787,-0.39298787,0.21741114,670.93251,606.04203)" /><path
       class="UnoptimicedTransforms"
       id="path9001-6-1-6"
       d="m 555.20815,552.04882 c 0,0 161.6476,0.71616 243.6817,0.71616 22.4415,0 97.8898,-11.77002 97.8898,-11.77002 0,0 -19.0335,50.45967 -100.7072,61.23102 -121.8428,16.06895 -222.99,-7.7944 -232.9433,-10.46137 -6.6672,-1.78646 -31.405,-8.68662 -31.405,-25.05122 0,-16.36461 23.484,-14.66459 23.484,-14.66459 z"
       style="font-variation-settings:normal;opacity:1;vector-effect:none;fill:url(#linearGradient5175);fill-opacity:1;stroke:#a37b33;stroke-width:6.26752;stroke-linecap:butt;stroke-linejoin:miter;stroke-miterlimit:4;stroke-dasharray:none;stroke-dashoffset:0;stroke-opacity:1;-inkscape-stroke:none;stop-color:#000000;stop-opacity:1"
       transform="matrix(-0.28531915,-0.34684297,-0.34684297,0.28531915,682.70029,564.52518)" /><path
       class="UnoptimicedTransforms"
       id="path9001-6-1-0-3"
       d="m 555.20815,552.04882 c 0,0 161.6476,0.71616 243.6817,0.71616 22.4415,0 97.8898,-11.77002 97.8898,-11.77002 0,0 -19.0335,50.45967 -100.7072,61.23102 -121.8428,16.06895 -222.99,-7.7944 -232.9433,-10.46137 -6.6672,-1.78646 -31.405,-8.68662 -31.405,-25.05122 0,-16.36461 23.484,-14.66459 23.484,-14.66459 z"
       style="font-variation-settings:normal;opacity:1;vector-effect:none;fill:url(#linearGradient5177);fill-opacity:1;stroke:#a37b33;stroke-width:6.26752;stroke-linecap:butt;stroke-linejoin:miter;stroke-miterlimit:4;stroke-dasharray:none;stroke-dashoffset:0;stroke-opacity:1;-inkscape-stroke:none;stop-color:#000000;stop-opacity:1"
       transform="matrix(-0.33564526,-0.29841134,-0.29841134,0.33564526,686.09156,535.5823)" /><path
       class="UnoptimicedTransforms"
       id="path9001-6-1-0"
       d="m 555.20815,552.04882 c 0,0 161.6476,0.71616 243.6817,0.71616 22.4415,0 97.8898,-11.77002 97.8898,-11.77002 0,0 -19.0335,50.45967 -100.7072,61.23102 -121.8428,16.06895 -222.99,-7.7944 -232.9433,-10.46137 -6.6672,-1.78646 -31.405,-8.68662 -31.405,-25.05122 0,-16.36461 23.484,-14.66459 23.484,-14.66459 z"
       style="font-variation-settings:normal;opacity:1;vector-effect:none;fill:url(#linearGradient7137);fill-opacity:1;stroke:#a37b33;stroke-width:3;stroke-linecap:butt;stroke-linejoin:miter;stroke-miterlimit:4;stroke-dasharray:none;stroke-dashoffset:0;stroke-opacity:1;-inkscape-stroke:none;stop-color:#000000;stop-opacity:1"
       transform="matrix(-0.74734297,-0.66443847,-0.66443847,0.74734297,1055.4463,549.39424)" /><path
       class="UnoptimicedTransforms"
       id="path9001-6-1-0-6-2-3"
       d="m 555.20815,552.04882 c 0,0 161.6476,0.71616 243.6817,0.71616 22.4415,0 97.8898,-11.77002 97.8898,-11.77002 0,0 -19.0335,50.45967 -100.7072,61.23102 -121.8428,16.06895 -222.99,-7.7944 -232.9433,-10.46137 -6.6672,-1.78646 -31.405,-8.68662 -31.405,-25.05122 0,-16.36461 23.484,-14.66459 23.484,-14.66459 z"
       style="font-variation-settings:normal;opacity:1;vector-effect:none;fill:url(#linearGradient5179);fill-opacity:1;stroke:#a37b33;stroke-width:6.26752;stroke-linecap:butt;stroke-linejoin:miter;stroke-miterlimit:4;stroke-dasharray:none;stroke-dashoffset:0;stroke-opacity:1;-inkscape-stroke:none;stop-color:#000000;stop-opacity:1"
       transform="matrix(-0.43193114,-0.1230551,-0.1230551,0.43193114,674.87347,412.28789)" /><path
       class="UnoptimicedTransforms"
       id="path9001-6-1-0-6-2-8-5"
       d="m 555.20815,552.04882 c 0,0 161.6476,0.71616 243.6817,0.71616 22.4415,0 97.8898,-11.77002 97.8898,-11.77002 0,0 -19.0335,50.45967 -100.7072,61.23102 -121.8428,16.06895 -222.99,-7.7944 -232.9433,-10.46137 -6.6672,-1.78646 -31.405,-8.68662 -31.405,-25.05122 0,-16.36461 23.484,-14.66459 23.484,-14.66459 z"
       style="font-variation-settings:normal;opacity:1;vector-effect:none;fill:url(#linearGradient5181);fill-opacity:1;stroke:#a37b33;stroke-width:7.38857;stroke-linecap:butt;stroke-linejoin:miter;stroke-miterlimit:4;stroke-dasharray:none;stroke-dashoffset:0;stroke-opacity:1;-inkscape-stroke:none;stop-color:#000000;stop-opacity:1"
       transform="matrix(-0.37913513,-0.03739253,-0.03739253,0.37913513,594.67221,401.23531)" /><path
       class="UnoptimicedTransforms"
       id="path9001-6-1-0-6"
       d="m 555.20815,552.04882 c 0,0 161.6476,0.71616 243.6817,0.71616 22.4415,0 97.8898,-11.77002 97.8898,-11.77002 0,0 -19.0335,50.45967 -100.7072,61.23102 -121.8428,16.06895 -222.99,-7.7944 -232.9433,-10.46137 -6.6672,-1.78646 -31.405,-8.68662 -31.405,-25.05122 0,-16.36461 23.484,-14.66459 23.484,-14.66459 z"
       style="font-variation-settings:normal;opacity:1;vector-effect:none;fill:url(#linearGradient7139);fill-opacity:1;stroke:#a37b33;stroke-width:3;stroke-linecap:butt;stroke-linejoin:miter;stroke-miterlimit:4;stroke-dasharray:none;stroke-dashoffset:0;stroke-opacity:1;-inkscape-stroke:none;stop-color:#000000;stop-opacity:1"
       transform="matrix(-0.84916809,-0.52812267,-0.52812267,0.84916809,1061.7262,462.73146)" /><path
       class="UnoptimicedTransforms"
       id="path9001-6-1-0-6-2-8-2-6"
       d="m 555.20815,552.04882 c 0,0 161.6476,0.71616 243.6817,0.71616 22.4415,0 97.8898,-11.77002 97.8898,-11.77002 0,0 -19.0335,50.45967 -100.7072,61.23102 -121.8428,16.06895 -222.99,-7.7944 -232.9433,-10.46137 -6.6672,-1.78646 -31.405,-8.68662 -31.405,-25.05122 0,-16.36461 23.484,-14.66459 23.484,-14.66459 z"
       style="font-variation-settings:normal;opacity:1;vector-effect:none;fill:url(#linearGradient5183);fill-opacity:1;stroke:#a37b33;stroke-width:9.909;stroke-linecap:butt;stroke-linejoin:miter;stroke-miterlimit:4;stroke-dasharray:none;stroke-dashoffset:0;stroke-opacity:1;-inkscape-stroke:none;stop-color:#000000;stop-opacity:1"
       transform="matrix(-0.27776236,0.05953374,0.05953374,0.27776236,465.83021,400.88856)" /><path
       class="UnoptimicedTransforms"
       id="path9001-6-1-0-6-2-8-2-3-9-5"
       d="m 555.20815,552.04882 c 0,0 161.6476,0.71616 243.6817,0.71616 22.4415,0 97.8898,-11.77002 97.8898,-11.77002 0,0 -19.0335,50.45967 -100.7072,61.23102 -121.8428,16.06895 -222.99,-7.7944 -232.9433,-10.46137 -6.6672,-1.78646 -31.405,-8.68662 -31.405,-25.05122 0,-16.36461 23.484,-14.66459 23.484,-14.66459 z"
       style="font-variation-settings:normal;opacity:1;vector-effect:none;fill:url(#linearGradient5185);fill-opacity:1;stroke:#a37b33;stroke-width:9.909;stroke-linecap:butt;stroke-linejoin:miter;stroke-miterlimit:4;stroke-dasharray:none;stroke-dashoffset:0;stroke-opacity:1;-inkscape-stroke:none;stop-color:#000000;stop-opacity:1"
       transform="matrix(-0.20154958,0.20018482,0.20018482,0.20154958,356.67704,361.54481)" /><path
       class="UnoptimicedTransforms"
       id="path9001-6-1-0-6-2-8-2-3-1"
       d="m 555.20815,552.04882 c 0,0 161.6476,0.71616 243.6817,0.71616 22.4415,0 97.8898,-11.77002 97.8898,-11.77002 0,0 -19.0335,50.45967 -100.7072,61.23102 -121.8428,16.06895 -222.99,-7.7944 -232.9433,-10.46137 -6.6672,-1.78646 -31.405,-8.68662 -31.405,-25.05122 0,-16.36461 23.484,-14.66459 23.484,-14.66459 z"
       style="font-variation-settings:normal;opacity:1;vector-effect:none;fill:url(#linearGradient5187);fill-opacity:1;stroke:#a37b33;stroke-width:9.909;stroke-linecap:butt;stroke-linejoin:miter;stroke-miterlimit:4;stroke-dasharray:none;stroke-dashoffset:0;stroke-opacity:1;-inkscape-stroke:none;stop-color:#000000;stop-opacity:1"
       transform="matrix(-0.24748346,0.13945657,0.13945657,0.24748346,411.97695,372.75619)" /><path
       class="UnoptimicedTransforms"
       id="path9001-6-1-0-6-2-8-2-3-9-8-7"
       d="m 555.20815,552.04882 c 0,0 161.6476,0.71616 243.6817,0.71616 22.4415,0 97.8898,-11.77002 97.8898,-11.77002 0,0 -19.0335,50.45967 -100.7072,61.23102 -121.8428,16.06895 -222.99,-7.7944 -232.9433,-10.46137 -6.6672,-1.78646 -31.405,-8.68662 -31.405,-25.05122 0,-16.36461 23.484,-14.66459 23.484,-14.66459 z"
       style="font-variation-settings:normal;opacity:1;vector-effect:none;fill:url(#linearGradient5189);fill-opacity:1;stroke:#a37b33;stroke-width:13.934;stroke-linecap:butt;stroke-linejoin:miter;stroke-miterlimit:4;stroke-dasharray:none;stroke-dashoffset:0;stroke-opacity:1;-inkscape-stroke:none;stop-color:#000000;stop-opacity:1"
       transform="matrix(-0.1083246,0.17051389,0.17051389,0.1083246,311.56033,449.6108)" /><path
       id="rect8152-5-7"
       style="font-variation-settings:normal;opacity:1;vector-effect:none;fill:url(#linearGradient5151);fill-opacity:1;stroke:#a37b33;stroke-width:6.26752;stroke-linecap:butt;stroke-linejoin:miter;stroke-miterlimit:4;stroke-dasharray:none;stroke-dashoffset:0;stroke-opacity:1;-inkscape-stroke:none;stop-color:#000000;stop-opacity:1"
       d="m 555.20815,552.04882 c 0,0 161.6476,0.71616 243.6817,0.71616 22.4415,0 97.8898,-11.77002 97.8898,-11.77002 0,0 -19.0335,50.45967 -100.7072,61.23102 -121.8428,16.06895 -222.99,-7.7944 -232.9433,-10.46137 -6.6672,-1.78646 -31.405,-8.68662 -31.405,-25.05122 0,-16.36461 23.484,-14.66459 23.484,-14.66459 z"
       class="UnoptimicedTransforms"
       transform="matrix(0.13895499,-0.42708147,0.42708147,0.13895499,367.48098,651.07676)" /><path
       d="M 530.33688,419.35118 C 475.9014,473.78666 379.98399,474.3724 309.4069,474.3724 c 0,172.38564 -52.8868,267.03001 220.92998,447.18964 273.81678,-180.15963 220.92998,-274.804 220.92998,-447.18964 -70.57709,0 -166.4945,-0.58574 -220.92998,-55.02122 z"
       id="path362"
       style="fill:url(#linearGradient10518);fill-opacity:1;stroke:#7a5d1f;stroke-width:4;stroke-dasharray:none;stroke-opacity:1"
       class="UnoptimicedTransforms"
       transform="matrix(0.93828562,0,0,0.93828562,14.991489,38.448929)" /><path
       d="M 530.33688,419.35118 C 475.9014,473.78666 379.98399,474.3724 309.4069,474.3724 c 0,172.38564 -52.8868,267.03001 220.92998,447.18964 273.81678,-180.15963 220.92998,-274.804 220.92998,-447.18964 -70.57709,0 -166.4945,-0.58574 -220.92998,-55.02122 z"
       id="path362-5"
       style="fill:url(#linearGradient62847);fill-opacity:1;stroke:url(#linearGradient62879);stroke-width:4;stroke-dasharray:none;stroke-opacity:1"
       class="UnoptimicedTransforms"
       transform="matrix(0.87720804,0,0,0.87720804,47.383517,79.385762)" /><path
       class="UnoptimicedTransforms"
       id="path9001-6-1-0-6-2-8"
       d="m 555.20815,552.04882 c 0,0 161.6476,0.71616 243.6817,0.71616 22.4415,0 97.8898,-11.77002 97.8898,-11.77002 0,0 -19.0335,50.45967 -100.7072,61.23102 -121.8428,16.06895 -222.99,-7.7944 -232.9433,-10.46137 -6.6672,-1.78646 -31.405,-8.68662 -31.405,-25.05122 0,-16.36461 23.484,-14.66459 23.484,-14.66459 z"
       style="font-variation-settings:normal;opacity:1;vector-effect:none;fill:url(#linearGradient7141);fill-opacity:1;stroke:#a37b33;stroke-width:3.5366;stroke-linecap:butt;stroke-linejoin:miter;stroke-miterlimit:4;stroke-dasharray:none;stroke-dashoffset:0;stroke-opacity:1;-inkscape-stroke:none;stop-color:#000000;stop-opacity:1"
       transform="matrix(-0.8441769,-0.08325769,-0.08325769,0.8441769,851.89326,250.25913)" /><path
       class="UnoptimicedTransforms"
       id="path9001-6-1-0-6-2-8-2-3-9"
       d="m 555.20815,552.04882 c 0,0 161.6476,0.71616 243.6817,0.71616 22.4415,0 97.8898,-11.77002 97.8898,-11.77002 0,0 -19.0335,50.45967 -100.7072,61.23102 -121.8428,16.06895 -222.99,-7.7944 -232.9433,-10.46137 -6.6672,-1.78646 -31.405,-8.68662 -31.405,-25.05122 0,-16.36461 23.484,-14.66459 23.484,-14.66459 z"
       style="font-variation-settings:normal;opacity:1;vector-effect:none;fill:url(#linearGradient7143);fill-opacity:1;stroke:#a37b33;stroke-width:4.74302;stroke-linecap:butt;stroke-linejoin:miter;stroke-miterlimit:4;stroke-dasharray:none;stroke-dashoffset:0;stroke-opacity:1;-inkscape-stroke:none;stop-color:#000000;stop-opacity:1"
       transform="matrix(-0.44876744,0.4457287,0.4457287,0.44876744,321.97662,165.8848)" /><text
       xml:space="preserve"
       style="font-size:37.3333px;line-height:0.9;fill:url(#linearGradient60943);fill-opacity:1;stroke:url(#linearGradient69711);stroke-width:2;stroke-dasharray:none;stroke-opacity:1"
       x="516.66656"
       y="607.52136"
       id="text233-3"><tspan
         id="tspan231-6"
         x="516.66656"
         y="607.52136"
         style="font-style:normal;font-variant:normal;font-weight:500;font-stretch:normal;font-size:37.3333px;font-family:'Algerian Basic D';-inkscape-font-specification:'Algerian Basic D Medium';text-align:center;text-anchor:middle;fill:url(#linearGradient60943);fill-opacity:1;stroke:url(#linearGradient69711);stroke-width:2;stroke-dasharray:none;stroke-opacity:1">THE MASTERS OF </tspan><tspan
         x="516.66656"
         y="649.06097"
         style="font-style:normal;font-variant:normal;font-weight:500;font-stretch:normal;font-size:37.3333px;font-family:'Algerian Basic D';-inkscape-font-specification:'Algerian Basic D Medium';text-align:center;text-anchor:middle;fill:url(#linearGradient60943);fill-opacity:1;stroke:url(#linearGradient69711);stroke-width:2;stroke-dasharray:none;stroke-opacity:1"
         id="tspan308">EXCELLENCE</tspan></text><path
       id="rect8152-5-5-9-7-3-6-1-9-2-5-2"
       style="font-variation-settings:normal;opacity:1;vector-effect:none;fill:url(#linearGradient7145);fill-opacity:1;stroke:#a37b33;stroke-width:6.66965;stroke-linecap:butt;stroke-linejoin:miter;stroke-miterlimit:4;stroke-dasharray:none;stroke-dashoffset:0;stroke-opacity:1;-inkscape-stroke:none;stop-color:#000000;stop-opacity:1"
       d="m 555.20815,552.04882 c 0,0 161.6476,0.71616 243.6817,0.71616 22.4415,0 97.8898,-11.77002 97.8898,-11.77002 0,0 -19.0335,50.45967 -100.7072,61.23102 -121.8428,16.06895 -222.99,-7.7944 -232.9433,-10.46137 -6.6672,-1.78646 -31.405,-8.68662 -31.405,-25.05122 0,-16.36461 23.484,-14.66459 23.484,-14.66459 z"
       class="UnoptimicedTransforms"
       transform="matrix(0.24119402,0.37966381,-0.37966381,0.24119402,802.47961,357.97132)" /><path
       class="UnoptimicedTransforms"
       id="path9001-6-1-0-6-2-8-2"
       d="m 555.20815,552.04882 c 0,0 161.6476,0.71616 243.6817,0.71616 22.4415,0 97.8898,-11.77002 97.8898,-11.77002 0,0 -19.0335,50.45967 -100.7072,61.23102 -121.8428,16.06895 -222.99,-7.7944 -232.9433,-10.46137 -6.6672,-1.78646 -31.405,-8.68662 -31.405,-25.05122 0,-16.36461 23.484,-14.66459 23.484,-14.66459 z"
       style="font-variation-settings:normal;opacity:1;vector-effect:none;fill:url(#linearGradient7147);fill-opacity:1;stroke:#a37b33;stroke-width:4.74302;stroke-linecap:butt;stroke-linejoin:miter;stroke-miterlimit:4;stroke-dasharray:none;stroke-dashoffset:0;stroke-opacity:1;-inkscape-stroke:none;stop-color:#000000;stop-opacity:1"
       transform="matrix(-0.61846175,0.13255699,0.13255699,0.61846175,565.01545,249.48703)" /><path
       class="UnoptimicedTransforms"
       id="path9001-6-1-0-6-2-8-2-3-9-8"
       d="m 555.20815,552.04882 c 0,0 161.6476,0.71616 243.6817,0.71616 22.4415,0 97.8898,-11.77002 97.8898,-11.77002 0,0 -19.0335,50.45967 -100.7072,61.23102 -121.8428,16.06895 -222.99,-7.7944 -232.9433,-10.46137 -6.6672,-1.78646 -31.405,-8.68662 -31.405,-25.05122 0,-16.36461 23.484,-14.66459 23.484,-14.66459 z"
       style="font-variation-settings:normal;opacity:1;vector-effect:none;fill:url(#linearGradient32202);fill-opacity:1;stroke:#a37b33;stroke-width:6.66965;stroke-linecap:butt;stroke-linejoin:miter;stroke-miterlimit:4;stroke-dasharray:none;stroke-dashoffset:0;stroke-opacity:1;-inkscape-stroke:none;stop-color:#000000;stop-opacity:1"
       transform="matrix(-0.24119402,0.37966381,0.37966381,0.24119402,221.52039,357.97132)" /><path
       style="opacity:1;fill:#ffffff;fill-opacity:0.33;stroke:#ffffff;stroke-width:1;stroke-dasharray:none;stroke-opacity:0.33;stop-color:#000000"
       d="M 465.27626,773.45139 C 391.08843,767.46133 317.68944,747.07311 260.9224,716.68747 161.76265,663.61035 115.38887,584.57964 115.38887,501.2168 c 0,-72.9077 33.22926,-142.94039 111.62355,-195.12958 7.82038,-5.20624 16.11406,-12.5162 16.34128,-12.22178 0.22722,0.29442 2.4918,7.96309 3.83393,13.0189 1.34214,5.05582 9.87528,31.30356 10.94377,32.86979 l 8.30624,23.00432 -14.99202,19.05163 c -34.51073,43.85571 -42.23531,122.86212 -31.73599,162.0461 25.85487,96.49165 77.27636,133.72173 179.44765,159.55332 38.18243,9.65353 69.11989,13.31498 112.79099,13.34884 33.53637,0.026 49.7398,-1.42248 78.15965,-6.37856 115.11503,-20.07459 185.71645,-61.65725 212.30415,-160.88408 15.01821,-56.04882 -2.33405,-139.72222 -27.22158,-167.04157 l -17.77686,-19.51388 11.19239,-29.92856 c 0,0 11.09479,-35.04046 11.44705,-36.03648 0.65327,-1.8471 21.97879,11.71662 40.90234,26.07099 13.63265,10.34097 47.62934,45.12998 56.76149,58.08436 28.02753,39.75838 42.8334,77.69583 42.8334,120.08624 0,36.54495 -12.3393,72.15971 -32.87124,105.21558 -10.42839,16.78942 -18.70335,27.21238 -34.86587,43.91628 -67.27104,69.52433 -173.32539,113.53969 -296.87908,123.21264 -20.8784,1.63456 -69.78666,1.57526 -90.65785,-0.10989 z"
       id="path5452" /><g
       id="g9"
       transform="matrix(1.8988661,0,0,2.3902564,108.27841,582.16052)"
       style="fill:#000000">
		<path
   id="path11"
   fill-rule="evenodd"
   d="m 217.74,92.907 c -17.6,0.396 -37.33,-0.216 -59.87,-1.836 -22.71,-1.691 -47.12,-4.392 -74.77,-8.1 V 69.651 C 67.116,67.311 53.112,65.079 40.512,62.559 27.912,60.038 17.292,57.483 8.076,54.746 18.228,52.226 27.372,49.742 36.336,47.69 45.156,45.602 53.292,43.55 60.888,41.93 50.268,36.278 40.872,30.698 32.124,25.19 23.341,19.539 15.781,14.247 8.869,8.739 c 15.552,3.349 29.7,6.265 42.876,8.604 13.068,2.34 20.988,3.527 35.568,5.508 14.617,1.908 31.497,3.78 51.477,5.76 v 14.112 c 10.98,1.116 22.83,1.979 36.07,2.592 13.22,0.54 27.15,0.937 42.63,1.044 h 0.5 c 15.45,-0.107 29.38,-0.504 42.63,-1.044 13.17,-0.612 25.05,-1.476 36.07,-2.592 V 28.611 c 19.94,-1.979 36.83,-3.852 51.48,-5.76 14.58,-1.98 22.35,-3.168 35.57,-5.508 13.17,-2.34 27.18,-5.256 42.84,-8.604 -6.95,5.508 -14.51,10.8 -23.26,16.452 -8.78,5.508 -18.22,11.088 -28.73,16.74 7.56,1.62 15.7,3.672 24.55,5.76 8.79,2.052 18.15,4.536 28.23,7.056 -9.22,2.736 -19.84,5.292 -32.4,7.813 -12.67,2.52 -26.61,4.752 -42.63,7.092 v 13.32 c -27.57,3.708 -52.16,6.408 -74.73,8.1 -22.57,1.619 -42.3,2.232 -59.87,1.835 z"
   style="fill:#000000" /><path
   id="path11-6"
   fill-rule="evenodd"
   d="m 217.74015,95.820308 c -17.6,0.396002 -37.33,-0.216 -59.87,-1.836004 -22.71,-1.691004 -47.12,-4.392012 -74.769999,-8.10002 V 72.56424 c -15.983999,-2.340006 -29.987999,-4.572012 -42.588,-7.092018 -12.6,-2.521008 -23.22,-5.076014 -32.4359996,-7.81302 10.1519996,-2.520008 19.2959996,-5.004014 28.2599996,-7.056018 8.82,-2.088006 16.956001,-4.140012 24.552001,-5.760016 -10.62,-5.652014 -20.016001,-11.232028 -28.764001,-16.740042 -8.783,-5.651024 -16.343,-10.943038 -23.2549996,-16.451042 15.5519996,3.348998 29.6999996,6.265006 42.8760006,8.604012 13.068,2.340006 20.987999,3.527008 35.567999,5.508024 14.616999,1.908004 31.496999,3.78001 51.476999,5.760014 V 45.63617 c 10.98,1.116004 22.83,1.979006 36.07,2.592008 13.22,0.54 27.15,0.937002 42.63,1.044002 h 0.5 c 15.45,-0.107 29.38001,-0.504002 42.63001,-1.044002 13.17,-0.612002 25.05,-1.476004 36.07,-2.592008 V 31.524134 c 19.94,-1.979004 36.83,-3.85201 51.48,-5.760014 14.58,-1.980016 22.35,-3.168018 35.57,-5.508024 13.17,-2.340006 27.18,-5.256014 42.84,-8.604012 -6.95,5.508004 -14.51,10.800018 -23.26,16.452042 -8.78,5.508014 -18.22,11.088028 -28.73,16.740042 7.56,1.620004 15.7,3.67201 24.55,5.760016 8.79,2.052004 18.15,4.53601 28.23,7.056018 -9.22,2.736006 -19.84,5.292012 -32.4,7.81302 -12.67,2.520006 -26.61,4.752012 -42.63,7.092018 v 13.320044 c -27.57,3.708008 -52.16,6.408016 -74.73,8.10002 -22.57,1.619004 -42.30001,2.232006 -59.87001,1.835004 z"
   style="fill:#000000" />
		
	</g><path
       id="path15"
       d="m 137.01395,609.50506 c 13.3984,4.7327 29.94132,9.3698 50.17563,14.29373 20.30268,4.90002 42.24598,9.70444 70.61504,14.79569 28.23234,4.80441 60.29849,9.46541 97.74413,14.26983 -11.33623,0.9561 -24.1156,3.01172 -39.36349,6.21466 -15.32385,3.25075 -31.994,7.12297 -51.13457,12.54885 v 71.25354 c -14.62886,-2.66752 -32.33389,-6.79789 -53.86703,-11.44454 -21.73822,-4.73032 -46.00573,-10.92826 -74.64823,-17.64488 21.80658,-7.74443 40.537,-13.67226 57.01156,-18.76351 16.54292,-4.97173 29.59952,-8.60492 40.74207,-10.82786 -13.26168,-8.27029 -27.54875,-18.42888 -43.88659,-30.81041 -16.26949,-12.47714 -33.97642,-27.1055 -53.38852,-43.8851 z"
       fill-rule="evenodd"
       stroke="#000000"
       stroke-miterlimit="10"
       stroke-width="0.0766959"
       fill="#437abe"
       style="fill:#721119;fill-opacity:1" /><path
       id="path17"
       d="m 278.65417,672.22538 90.03473,-19.36107 v 30.11723 c -15.03902,-1.29074 -29.60332,-2.65319 -44.77526,-4.46978 -15.11497,-1.8883 -30.01728,-3.87222 -45.25947,-6.28638 z"
       fill-rule="evenodd"
       stroke="#000000"
       stroke-miterlimit="10"
       stroke-width="0.0766959"
       fill="#437abe"
       style="fill:#721119;fill-opacity:1" /><path
       id="path19"
       d="m 906.46677,609.50506 c -13.53891,4.7327 -29.94512,9.3698 -50.244,14.29373 -20.50775,4.90002 -42.38269,9.70444 -70.61883,14.79569 -28.2931,4.80441 -60.36495,9.46541 -97.75362,14.26983 11.2223,0.9561 24.05863,3.01172 39.38248,6.21466 15.22891,3.25075 31.91994,7.12297 51.13646,12.54885 v 71.25354 c 14.54532,-2.66752 32.26174,-6.79789 53.85185,-11.44454 21.60909,-4.73032 46.08548,-10.92826 74.72038,-17.64488 -21.93191,-7.74443 -40.59776,-13.67226 -57.00396,-18.76351 -16.61508,-4.97173 -29.67928,-8.60492 -40.74967,-10.82786 13.12117,-8.27029 27.49558,-18.42888 43.8828,-30.81041 16.19732,-12.47714 33.91374,-27.1055 53.39611,-43.8851 z"
       fill-rule="evenodd"
       stroke="#000000"
       stroke-miterlimit="10"
       stroke-width="0.0766959"
       fill="#437abe"
       style="fill:#721119;fill-opacity:1" /><path
       id="path21"
       d="m 764.83035,672.22538 -90.1012,-19.36107 v 30.11723 c 14.9061,-1.29074 29.66029,-2.65319 44.83223,-4.46978 15.03902,-1.8883 29.94512,-3.87222 45.26897,-6.28638 z"
       fill-rule="evenodd"
       stroke="#000000"
       stroke-miterlimit="10"
       stroke-width="0.0766959"
       fill="#437abe"
       style="fill:#721119;fill-opacity:1" /><path
       id="path23"
       d="m 518.05371,799.84356 c -21.13438,0.34659 -45.26897,-0.43024 -74.24566,-2.32333 -29.18558,-2.32333 -68.77693,-5.85134 -98.17138,-9.63751 -29.31849,-3.87222 -54.54113,-7.74443 -76.48443,-12.56319 V 675.06979 c 21.53314,3.87221 43.27326,7.40979 66.04066,10.2542 22.74842,2.58148 38.54699,4.73271 69.23266,6.78833 30.57175,1.8883 67.61862,3.60928 112.73568,5.16295 h 9.15254 c 45.11706,-1.55367 81.97405,-3.27465 112.65972,-5.16295 30.34388,-2.05562 46.40829,-4.20685 69.25165,-6.78833 22.69145,-2.84441 44.35751,-6.38199 66.09953,-10.2542 v 100.24974 c -22.08381,4.81876 -47.24379,8.69097 -76.48633,12.56319 -29.54635,3.78617 -69.3276,7.31657 -98.24733,9.63751 -29.05265,1.89309 -53.2442,2.66753 -74.16971,2.32333 z"
       fill-rule="evenodd"
       stroke="#000000"
       stroke-miterlimit="10"
       stroke-width="0.0766959"
       fill="#437abe"
       style="fill:#721119;fill-opacity:1" /><text
       xml:space="preserve"
       style="font-size:97.5817px;letter-spacing:6px;fill:#000000;fill-opacity:1;stroke:#000000;stroke-width:2;stroke-dasharray:none;stroke-opacity:1"
       id="text233-8"
       transform="translate(0.88064111,79.240692)"><textPath
         xlink:href="#path4757"
         startOffset="50%"
         id="textPath4759-9"><tspan
           id="tspan231-9"
           style="font-style:normal;font-variant:normal;font-weight:normal;font-stretch:normal;font-size:97.5817px;font-family:'Algerian Basic D';-inkscape-font-specification:'Algerian Basic D';text-align:center;text-anchor:middle;fill:#000000;fill-opacity:1;stroke:#000000;stroke-width:2;stroke-dasharray:none;stroke-opacity:1"
           dx="0">A.C.E.S.</tspan></textPath></text><text
       xml:space="preserve"
       style="font-size:97.5817px;letter-spacing:6px;fill:#f2ce6a;fill-opacity:1;stroke:#000000;stroke-width:2;stroke-dasharray:none;stroke-opacity:1"
       id="text233"
       transform="translate(0,74)"><textPath
         xlink:href="#path4757"
         startOffset="50%"
         id="textPath4759"><tspan
           id="tspan231"
           style="font-style:normal;font-variant:normal;font-weight:normal;font-stretch:normal;font-size:97.5817px;font-family:'Algerian Basic D';-inkscape-font-specification:'Algerian Basic D';text-align:center;text-anchor:middle;fill:#f2ce6a;fill-opacity:1;stroke:#000000;stroke-width:2;stroke-dasharray:none;stroke-opacity:1"
           dx="0">A.C.E.S.</tspan></textPath></text><path
       style="opacity:0.572308;fill:none;stroke:none;stroke-width:2;stroke-dasharray:none;stroke-opacity:1"
       d="m 269.95663,685.0478 c 271.99881,51.53624 503.79243,0.90802 503.79243,0.90802"
       id="path4757" /></g></svg>
